PathFileType	3	(X/Y/Z)	D:\minhoCalibration\240510\subject5_KPNP\preferred\preferred05.trc
DataRate	CameraRate	NumFrames	NumMarkers	Units	OrigDataRate	OrigDataStartFrame	OrigNumFrames
200.0	200.0	12	10	mm	200.0	227	131	
Frame#	Time	Left_Ankle_Outer1			Left_Ankle_Inner1			Left_Knee_Outer1			Left_Knee_Inner1			Left_Wrist1			Right_Wrist1			Right_Knee_Inner1			Right_Knee_Outer1			Right_Ankle_Inner1			Right_Ankle_Outer1			
		X1	Y1	Z1	X2	Y2	Z2	X3	Y3	Z3	X4	Y4	Z4	X5	Y5	Z5	X6	Y6	Z6	X7	Y7	Z7	X8	Y8	Z8	X9	Y9	Z9	X10	Y10	Z10	
227	1.125	-606.94519	86.373703	-505.57297	-635.82843	97.20916	-461.12192	-433.66931	531.45959	-456.82144	-482.8616	518.59009	-377.35822	-512.05035	962.06635	-643.51721	-588.96301	1196.5054	-423.35233	-411.24664	1048.5225	0.74711525	-463.15607	1119.7505	-10.659002	-371.07205	981.6394	439.47949	-443.14636	1047.7704	447.30154
228	1.13	-607.93427	86.116692	-504.68546	-636.90607	96.752045	-460.27573	-435.80658	531.81348	-455.07608	-486.17728	518.93787	-376.43393	-510.4599	961.72198	-641.32971	-590.11328	1198.5509	-421.12653	-414.28232	1045.9426	2.2979708	-467.625	1115.9905	-8.2136459	-369.63333	975.44336	439.47986	-444.06842	1038.2454	448.31754
229	1.135	-609.13849	85.797478	-503.67517	-637.91138	96.187401	-459.04507	-437.7276	531.9425	-453.89764	-489.08444	519.22821	-375.95984	-509.04138	961.36035	-639.6402	-591.46875	1198.9061	-422.15649	-418.26947	1042.1438	3.9622555	-471.50397	1112.2153	-5.8543272	-368.26871	968.53552	439.14575	-444.83649	1028.1572	449.04102
230	1.14	-610.40015	85.476341	-502.61151	-639.11676	95.599907	-457.83505	-439.58603	531.98615	-453.32336	-491.51065	519.40063	-375.96527	-508.36902	960.85229	-637.97614	-592.633	1199.042	-421.18011	-422.62256	1037.5181	5.744895	-474.99222	1108.4056	-3.4379282	-367.09198	961.36578	438.59088	-446.21436	1017.7997	450.0524
231	1.145	-611.81329	84.916878	-501.41031	-640.20111	94.948639	-456.71371	-441.15372	531.73083	-453.49228	-493.54172	519.37671	-376.36633	-507.16455	961.51013	-636.55542	-593.82489	1198.7775	-419.91672	-427.1951	1032.5435	7.4758301	-478.29352	1104.5295	-0.83132058	-366.33026	953.63269	437.80051	-447.26691	1006.8199	450.45807
232	1.15	-613.09906	84.396645	-500.40662	-641.39032	94.32222	-455.38168	-443.39767	531.05475	-453.64005	-495.13953	519.12817	-377.07169	-505.40225	962.17987	-636.17957	-595.1391	1197.9526	-418.47382	-431.72342	1027.4572	9.1153097	-481.93457	1100.3278	1.8227235	-366.3895	945.1333	436.90295	-448.46814	996.01416	450.65979
233	1.155	-614.27454	83.612564	-499.45834	-642.43195	93.672852	-454.41946	-443.97696	530.99835	-455.21396	-496.35129	518.77405	-377.94479	-505.56378	962.17297	-634.20941	-596.92255	1196.2261	-417.86761	-435.9277	1022.5085	10.570655	-486.01172	1095.6368	4.3462543	-367.23672	936.21893	435.95874	-450.49457	985.06366	450.9108
234	1.16	-615.21332	83.026085	-498.86978	-643.18982	92.90889	-453.97128	-445.30096	530.36505	-456.69916	-497.17712	518.18823	-379.19171	-503.91077	963.50903	-633.10431	-598.30859	1194.3542	-416.4068	-438.88837	1017.9818	11.167515	-490.1868	1090.568	6.5445757	-368.82547	927.01813	435.19766	-452.83585	973.92932	450.75977
235	1.165	-615.70251	82.420357	-498.63828	-643.51868	92.430099	-453.23944	-446.52829	529.58923	-458.37112	-497.6438	517.45398	-380.60086	-501.81509	965.05487	-632.74622	-600.14374	1192.7604	-413.2179	-442.112	1013.3561	11.848404	-494.33069	1085.1514	8.3478413	-371.1705	917.42926	434.4649	-455.79428	963.01611	450.53049
236	1.17	-615.95276	81.65432	-498.74036	-643.56134	91.787346	-453.7507	-447.35034	528.94006	-460.53976	-497.89017	516.83136	-382.08038	-500.3642	966.08118	-631.62054	-602.29559	1190.6304	-410.95682	-445.26651	1008.4276	12.370177	-498.32428	1079.5262	9.6904907	-374.58707	907.05713	433.71094	-459.99478	952.14404	450.55515
237	1.175	-615.82532	80.907906	-499.27893	-643.73022	91.151161	-454.33334	-447.94382	528.18628	-462.96393	-497.81854	516.08508	-383.871	-497.69476	967.76172	-631.32159	-605.20508	1188.899	-407.76468	-448.55487	1003.1794	12.661687	-502.19769	1073.7158	10.661075	-378.612	896.34747	432.853	-463.77844	940.7005	449.62103
238	1.18	-615.56342	80.272697	-500.0965	-643.71967	90.607773	-455.12024	-448.27307	527.49591	-465.54208	-497.86432	515.28064	-385.64941	-496.01611	969.13348	-629.8797	-607.68024	1186.4456	-405.97812	-451.93338	997.56818	12.695455	-505.93161	1067.7106	11.307426	-383.17493	885.05768	431.6756	-468.65323	928.87329	448.96396
